# xmcd CD database file
#
# Track frame offsets:
#	150
#	12815
#	24975
#	38195
#	50510
#	64820
#	78215
#	91815
#	104705
#	118425
#	130965
#	144010
#	152920
#	168605
#	178060
#	188235
#	200290
#	211945
#	224825
#	237695
#	251420
#	261660
#	271850
#
# Disc length: 3757 seconds
#
# Revision: 0
# Processed by: cddbd v1.4b42PL0 Copyright (c) Steve Scherf et al.
# Submitted via: CD2WAV32(EN) R3.18
#
DISCID=590eab17
DTITLE=Richard Berry - Daddy Daddy
DYEAR=1900
DGENRE=
TTITLE0=Daddy Daddy
TTITLE1=Good Love
TTITLE2=Next Time
TTITLE3=I Am Bewildered
TTITLE4=Pretty Brown Eyes
TTITLE5=Together
TTITLE6=Wait For Me
TTITLE7=Baby Darling -aka- Baby, Baby
TTITLE8=The Big Break
TTITLE9=Jelly-Roll
TTITLE10=At Last
TTITLE11=Bye Bye Baby
TTITLE12=Real Good Lovin' Man
TTITLE13=Look Out Miss James
TTITLE14=Rockin' Man
TTITLE15=Big John
TTITLE16=I'm Still In Love With You
TTITLE17=Crazy Lover
TTITLE18=One Little Prayer
TTITLE19=Get Out Of The Car
TTITLE20=Mad About You
TTITLE21=Angel Of My Life
TTITLE22=Yama Yama Pretty Mama
EXTD=
EXTT0=
EXTT1=
EXTT2=
EXTT3=
EXTT4=
EXTT5=
EXTT6=
EXTT7=
EXTT8=
EXTT9=
EXTT10=
EXTT11=
EXTT12=
EXTT13=
EXTT14=
EXTT15=
EXTT16=
EXTT17=
EXTT18=
EXTT19=
EXTT20=
EXTT21=
EXTT22=
PLAYORDER=
